<svg xmlns="http://www.w3.org/2000/svg" xmlns:xlink="http://www.w3.org/1999/xlink" xml:space="preserve" width="512" height="512" viewBox="0 0 135.5 135.5"><defs><linearGradient id="a"><stop offset=".3" style="stop-color:#fff;stop-opacity:1"/><stop offset=".9" style="stop-color:#000;stop-opacity:1"/></linearGradient><linearGradient xlink:href="#a" id="b" x1="55" x2="74" y1="56.7" y2="56.7" gradientTransform="translate(-.1 -.1)" gradientUnits="userSpaceOnUse" spreadMethod="repeat"/></defs><g style="display:inline"><path d="M106.4 138.6 22 135.3v-.8l.4-.2.4-.3v-1.5H22v-1l.8-.7.7-.7-.1-.2-.2-.2-.8.5-.9.4.2-1 .2-1.2c-.3-17.7-1-28.6 5.3-45h1.4l-.5.4-.4.4v1.4h-.8l-.1-.4-.2-.5-.2.2-.2.2.2 1.4.2 1.5h1l-.2 3.5-.2 3.4.7.2.7.2h-1.8v4.8h-.7v3l.2.6.3.6H31l.2-.3.3-.4-.5-.2-.5-.2h1.8l-.3.5-.2.6.4.2.4.3.6-.6.6-.5-.3-.3-.2-.2H38l1-2 .8-1.9-.2-1-.3-1h1.1l1 .1-.6.2-.7.2.2.6.2.6v.7l.8-.4.7-.4h1.5l.3-.6.2-.6H43.7l-1 .4-1 .4v-1.2h2.6l.5.5.5.5-.3-.5-.2-.5h1.8l.8-.5.7-.6h2l1.6-.7 1.7-.6v-.7h1.5l.2-.4.3-.4h-2l-.2-.8-.3-.8.2-.2.2-.2 1.3.4 1.2.5h1.9v-.9l.3.3.4.2v-1.4l-.3-.6-.4-.6H50l-.2-.1V89l.2-.7.2-.7h2.8l-.3-1.2-.2-1.2v-.8l-.8.2-.8.2-.2-.5-.2-.6h-1.1l-.3-.5-.2-.4 2.5.2 2.5.2 1-1.5 1.1-1.4v-.5h-1.2v-1.2H56.2l1.2-.7 1.2-.7 2.6-.3 2.5-.3.2-.4.3-.4.2.4.3.5-.8.7-.8.8v.8h1.1l.1.4.2.4 1.5.2 1.6.2 1 .2 1 .2.7.1.8.2 1.9.3 1.8.2.5-.4.5-.4.4.3.3.3-.3-.5-.2-.5.8-.8.9-.8h.5l1-.8 1-1 .1-2.1.1-2.2-.2.2-.3.1v-.7l-.2-.5-.2-.6 1.4-.4 1.5-.5.3.5.3.4V69H84.7l1-.3.8-.2v-1.1h.8v-1.5h.6l.4-1.7.5-1.6.2-2.2.2-2.1-.8-2.3-.8-2.3-.5-.8-.5-.9-1.8-2.7-1.7-2.7-.3-1.1-.3-1.2-1.7-2.2-1.7-2.2v-.6l-.6-.5-.5-.4-1.3-2.3-1.2-2.4-1.6-2.5-1.5-2.5-2-1.2-2-1.2-1.3-.5-1.3-.5-.6-1.1-.6-1.1H59.3l-1.3.5-1.3.6-.8.5-.7.5-1 1.1-1 1.1-.3.8-.2.9.3.8.3.9-.3.2-.4.2v2l-1.4 2-1.4 2.2H46l-.8.2-.7.2-.5 1.4-.5 1.4-.4 2.6-.4 2.6-.4.3-.5.3-.2-.4-.2-.3-.8-.1-.8-.2-.4-.9-.3-.8h-.6v-1.1l-1.7-.6-1.6-.5-.1-.4-.2-.5.5-.5.6-.5V37.8l-.3.2-.3.2v-.5l.5-.6.6-.6-.2-.4-.2-.4.5-.6.6-.7.4-1.4.4-1.4-.3-.5-.3-.4-.6.2-.7.3v-.7h1l1.1-.2.5.8.6.8.4-.2.3-.3V29.7l.8-1.4.8-1.5v-1.2l1.3-1.3 1.3-1.3.3.6.4.5 1.5.2 1.5.2.7-.6.8-.7.7.2.8.2.3-.3.2-.4H49.8l.6-.6.6-.5h.8l.4-1 .3-.8.8-1.2.8-1.1v.2l.1.2v1l.2 1-.6-.4-.5-.4.5 1 .5 1 .6.2.6.3.3-.4.4-.4-.4-1.9-.4-1.8.4-.3.5-.3h-.7l.4-.4.4-.5.5.3.5.3 2.5.1h2.5l.2-.6.2-.8H64.1l1 .6 1.1.6-.2-1-.2-.9.4-.2.4-.3-.2-.4-.2-.3h1.4l.5.4.4.5h2.8l2.7.1.5.4.5.5.6-.1h.6l.4-.3.3-.2h6l.5.5.6.5.5-.5.4-.4v-1H86l1 .8 1 .8V17h1l.6.1h.5l.3 1.2.4 1.2-.6 2.3-.6 2.3v1.4h2.9l1.5-.5 1.5-.5 1.4.2 1.5.3.3.8.4.9 1.2.1 1.2.2zm-40.7-1.5h.1v-.8H65l.3.4.2.4zM28 130.3h3.8l.4-.4.5-.3v-1.9H31.4l.8-.4 1-.3v-2.7l-.7-.2-.6-.3h-4.4l.5-.2.4-.2-.2-.4-.2-.3h2.8l.3-.8.2-.8h1.4v-.7l-.6-.2-.5-.2v-.9H32.9l-1-.5-.8-.5 1.4-.3 1.4-.2v-.8h-2.3v-.8h2.2l.2-1.7.3-1.7.5-1.6.6-1.6-.5-.3-.4-.4-.8-.2-.8-.2h3.3v-1.6h-2.5l1.4-.5 1.3-.4-.7-.5-.6-.4.3-.4.2-.3-.4.3-.5.3.1.3.2.2h-8.7l-.1 2.5-.1 2.4h.8l-.5.5-.6.6v3.2l1.4.6 1.4.6-1.3.5-1.4.4-.4.4-.4.4V121.7l.4.5.3.5h-1.1l-.4 3.6 6.3.2.2.2.1.3zm-2.8-2.3-.3.2v-1l.3.3.3.2zm.3-4.6h-.2v-.4h.4v.4zm4.9-2H30v-.7l.4.2.4.2v.4zm-1.4-11h-2l1.2-.1 1-.2.9.2.9.2zm1-1.8h-1l.5-.2.5-.2.5.2.5.2zm-1.4-2h-2l1.2-.2 1-.2 1 .2.8.2zm5.1 12.5h.6l-.2-.3-.3-.4h-.7v.7zm45.1-9.3h.8L84 108l4.3-1.9 3.1-2 3.2-1.9c.6-1.8 1-3.7 1.8-5.3l.3-.7v-.8l1-2 .9-2.1.3-1.2.2-1.1.6-1.8.6-1.7V80l-.6-2-.6-1.9-.8-2-.9-1.9-.4-.9-.4-.9-.3.4-.4.3-.2 2.9-.1 2.9-.4 2-.4 1.9-.2.9-.1.8-.7.8-5.1 7.6c-4.4 2.8-7 8-12.4 12.2h-.7l.3.4.2.4-.5.2-.5.1v3.3h.5l.3.7.2.8h1.5l.2.4.3.4zm21.7-4.1.2-.2-.5-.5-.5-.4v.8l.3.2.3.3zm-64-1.5.2-.2-.2-.3-.3-.3v1.1zM56 93.4h.5l-.2-.2-.3-.3-.3.3-.2.2zm-2.5-4.6h.2v-.4h-.4v.4zm-2.4-.5h.7l-.2-.2-.2-.2-.5.2-.5.2zm55.7-8.2-1.7-.1v.2l.8.3.8.3zm-1.5-.7h.2V79h-.4v.4zm0-1.2h.2V78h-.4V78.2zm1.2 0 .2-.3-.2-.5-.2-.5v1.5zm-2.4-.7h.2V77h-.4v.4zm-.8-.4h.2v-.4h-.4v.4zm-.3-1.6h.2l-.5-.8-.4-.8-.2.2-.2.2.5.6.4.6zm-.2-5h1.5v-.8H101l.2.4.2.4zm4-7.1.3-.4-.7.2-.7.1zM96.3 63h1.1l1-.5 1.1-.5 1-1.3.9-1.2-.2-.2-.2-.2.3-1.4.3-1.4-.3-1.8-.3-1.8.1-.1.2-.2-.2-18.1-.7.8-.6.9-.4 1.8-.4 1.8.4 2.2.4 2.2-.3.3-.3.2-.2-.5-.1-.5-1.1-1.2-1.1-1.2-1.1.3-1 .4-1.2 1.6-1 1.5v.8l-.1.8v2.2l.4 1 .5.8 1-.4 1-.3h1.2l1.2.2.5.6.4.6v1.6l-.5 1.3-.6 1.4V54.4l-.9-.7-.9-.7-1.6-.1-1.6-.1-.8.6-.7.7-.2-.2-.3-.3.2 1.3.2 1.3.4.4.3.4.2 1 .2 1.1L93 61l1.2 1.7.5.2.5.2zM95 55.6h-.2V55.3h.4V55.6zm-1.2-7.4h-.2V48h.4V48.2zm4.7-1.1h-.2v-.4h.4v.4zm-.4-.8h-.2v-.4h.4v.4zm-1-1.6h-.4l.2-.4.3-.3H97.4v.7zm-.6-.7h-.2v-.4h.4v.4zm9.2 16h.8v-.8l-.8.2-.8.2V60zM92.9 52h.2V51.8h-.4V52zm-65.2 49.5h-1l.5-.2.5-.2.4.2.5.2zm2.1-.4h-.2v-.4h.4v.4zm3-1.4-2.4.3v-.8h5.2l-.2.1-.1.2zm5-.3h-1.4l.2-1.1.1-1h.6l-.2.7-.2.9 1-.2 1.2-.1.1.4.1.4zm3.3-1h-.2v-.4h.4v.4zm-3-.4h-.4l.3-.4.2-.4h.8l-.2.4-.3.4zm-8.5-2.3h-.3l-.3-.4-.2-.4.6.2.6.3V95.8zm11.1 0h-.2v-.4h.4v.4zm1.2 0h-.2v-.4h.4v.4zm4.8 0h-.5l.3-.3.2-.2.3.2.3.3zM32 95.4h-.5l.3-.3.2-.2.3.2.3.3zm3.4 0H35V95h.4v.4zm-5-.8H30l.2-.3.3-.2.2.2.3.3zm1.8 0H32v-.4h.4v.4zm19 0h-1.4l.7-.3.6-.1.7.1.7.2zm1.8-3.6h-.1l-1.8-.3-1.7-.3H53v.7zm-17.2-1H35l.2-.4.2-.4 1.9-.2 1.8-.3.5-.7.5-.6v.9h1.3l1.3-.1.5-.4.5-.3 1.2.3 1.2.3.5.5.6.5-1 .2-.8.2-2.7.2-2.7.2-.5-.4-.4-.3-1.3.3-1.4.4zm12.6-.8H48V88h.8v1.2zm-18.3-2h-2.3v-.8l2.3.1 2.3.1v.6zm9-3.5h-.6l.3-.3.3-.2.2.2.3.3zm2.4-2.4H41l-2.2-.5-2.2-.4-.3-.4-.4-.3 1 .2 1 .3h3.7v1.2zm1.3-.3h-.2l-.2-.4-.3-.4H43.3l-.3.4-.2.4zm8.1 0h-.2v-.4h.4v.4zm-6-.5h-1.4l.7-.2.7-.2.7.2.7.2zm5.3-1.6-.2.3v-1.5l.2.5.2.5zm-13.9-.3h-.5l.3-.2.2-.3.3.3.2.2zm13.1 0h-.2l-.2-.4-.3-.5.4.3.5.3V78.6zm-5-.4h-.6l-.5-.6-.5-.6 1 .1.8.2.2.5.2.4zm3.8 0H48V78h.4V78.2zm.4-.7h-.2V77h.4v.4zm30.8-.4H79v-.4h.4v.4zm-14-2.7v.4l-.7-.6-.7-.7v-.7h.4l.6.6.6.6zm-14-6.8h-.8l-1.3-.7-1.3-.7-.3-.2-.2-.2.7-.6.6-.6v-.7l-.9-.2-.9-.3-1.7-1.5-1.7-1.5.3-.4.3-.5h1.4l.7.8.7.8h3.3l1 1.6 1 1.5v3.4zm-13.5-.7h-.5l.2-.2.3-.3.2.3.3.2zm1 0h-.2V66.6h.4V66.9zM67 65l-1 1-1.3-.2-1.4-.3-1.4-.6-1.5-.7h-3.3l-.9-.6-.8-.6-.6-1.1-.6-1.1.5-.6.4-.5 1.8-1.4 1.9-1.5h.5l.9-1 .9-1h.5l1.1-.7 1-.8 3.7-.8 3.6-.8.2.2.1.1-.9 1-.9.9-1.9 1-2 1v.5l-.2.5 1.2.4 1.2.5v.6h-1.2v1.5h.7l2-.8 2.2-.9.4-.3.3-.3h2.2l-.5.9-.5.8-.7.6-.7.5.2.7.2.7-2.2 1L68 64zm-23.8-2.3h-.5l.3-.3.2-.3.3.3.3.3zm-.5-12.4-.2.5v-2l.2.5.2.5zm-5.5-.1H37v-.4h.4v.4zm4.3-.4h-.2v-.4h.4v.4zM34.9-1.6l-.1 2-.2 2-.4 3.8-.4 3.7V14.2l-.3-.6-.3-.5v6h.5zm1.6 34.5-.3.3v-1.5l.3.5.2.5zm-1.8-.2h-.4v-.9l.4.3.4.2v.4zm-.2-1.6h-.2v-.4h.4v.4zm2.9-1.2h-.5l.2-.2.3-.3.3.3.2.2zm.2-1.2h-.4l-1.2-.3-1.1-.2-.2-.7v-.7h.6l.5-1.5.5-1.6-.5-.6-.5-.6-.6.2-.6.2 1-.8 1-.9-.7.3-.6.2-.5-1-.4-1v-1.1h1.7l.5-.4.4-.4.6.8.6.9.8-.5.9-.6-.3-1-.2-1 .6-.2.6-.3-.2-.6-.3-.6-.3.5-.3.5V14l.6-.2.6-.2h1.5v-1.2h2.1l3.7.6 3.7.6.7.2.7.2v1.4l-.7.6-.7.7H49.9l-.2.4-.3.4h-2l-.1.7-.3.8h-1.5l.3.4.2.4-1.2.4-1.2.5v.8l-1.8 1.8-1.9 1.8-.4 1-.5 1-.1.5-.1.6-.4.3-.4.3zm.2-3.8h.5l-.3-.3-.2-.3-.3.3-.2.3zm7.6-1.2h-.8l.5-.3.5-.2.3.3.2.2zm-10.3-9h-.6l.3-.2.3-.3.2.3.3.2z" style="fill:#000"/></g></svg>